<svg xmlns="http://www.w3.org/2000/svg" xmlns:xlink="http://www.w3.org/1999/xlink" aria-hidden="true" role="img" class="iconify iconify--logos" width="31.88" height="28.47" preserveAspectRatio="xMidYMid meet" viewBox="0 0 256 228"><path fill="#00D8FF" d="M210.483 73.969c-2.744-14.544-9.623-28.528-20.354-40.459c-8.881-9.877-20.169-17.596-33.006-22.109C143.513 6.641 129.507 4 115.112 4c-13.911 0-27.481 2.459-40.231 7.021c-12.28 4.394-23.23 11.605-31.983 20.841C31.785 43.761 24.691 57.34 21.82 71.32c-1.8 8.784-2.067 18.046-.593 27.24c2.245 13.945 7.645 27.206 15.655 38.681c8.431 12.08 19.863 21.996 32.748 28.591c12.251 6.269 25.877 9.613 39.815 9.878c.451.008.902.013 1.353.013c14.246 0 28.18-2.613 41.134-7.508c12.56-4.751 23.704-12.427 32.55-22.18c10.875-11.99 17.848-26.12 20.612-40.857c1.822-9.713 2.05-19.167.57-28.401c-1.398-8.711-3.693-17.02-6.801-24.814L210.483 73.97zM115.112 0c14.996 0 29.516 2.768 42.13 7.892c13.793 4.851 25.968 13.111 35.532 23.754c11.608 12.91 19.055 28.086 22.022 43.811c1.589 8.423 1.942 17.18.892 26.06c-1.503 12.686-5.462 24.88-11.516 35.867c-6.19 11.233-15.018 20.89-25.541 28.267c-12.571 8.814-27.143 14.544-42.695 16.518c-7.398.938-14.93 1.258-22.518.892c-15.541-.75-30.347-4.823-43.518-11.758c-13.682-7.202-25.857-17.653-34.72-30.342C6.182 129.522 1.096 115.34.093 100.278c-.689-10.366-.239-20.732 1.458-30.824C4.695 51.042 12.33 36.336 23.955 24.032c9.57-10.121 21.658-18.067 35.195-23.007C72.012 2.651 86.685 0 102.341 0c4.27 0 8.527.202 12.771.607z"></path><circle cx="128" cy="114" r="28" fill="#00D8FF"></circle></svg>